<svg height="950pt" preserveAspectRatio="xMidYMid meet" viewBox="0 0 950 950" width="950pt" xmlns="http://www.w3.org/2000/svg"><g transform="matrix(.1 0 0 -.1 0 950)"><path d="m2230 9230c-624-60-1181-408-1525-955-203-322-305-691-305-1100 0-252 37-475 115-695 66-185 214-445 331-580 87-101 99-126 99-199s6-61-134-291c-95-156-253-472-304-610-107-286-148-531-127-762 17-181 29-223 160-538 167-405 378-752 650-1074 99-117 110-137 110-199 0-60-23-105-91-182-438-491-828-1127-1098-1789-34-82-61-153-61-157 0-5 107-9 238-9h238l49 112c228 531 568 1082 914 1482 132 154 152 173 196 185 59 16 102 0 221-80 598-401 1298-635 2174-726 240-25 898-25 1135 0 601 64 1073 180 1538 379 222 94 425 203 622 333 124 81 157 92 229 71 59-17 96-53 243-229 324-390 617-865 839-1362l71-160 247-3c135-1 246 0 246 3 0 15-111 276-181 428-235 507-547 1000-886 1400-184 217-181 214-188 261-10 65 8 105 88 198 130 150 211 256 314 413 160 243 264 445 448 875 125 292 125 641 0 1015-73 217-201 487-346 725-111 182-131 223-137 278-6 64 11 99 101 214 220 283 361 605 422 968 26 153 31 421 11 577-59 457-247 849-565 1177-179 183-341 301-566 412-894 439-1964 142-2527-701-127-191-251-484-294-695l-17-85h-272-272l-17 85c-43 212-169 509-295 696-323 481-811 795-1367 879-127 19-352 26-474 15zm438-485c293-51 579-197 800-409 279-269 436-585 482-972 15-133 28-169 76-223 65-72 116-86 265-70 157 17 562 17 750 0 177-15 211-10 266 42 41 38 49 65 63 197 67 636 481 1173 1059 1374 183 64 281 80 491 80 154 0 203-4 290-23 633-135 1103-617 1232-1263 32-161 32-425 0-586-28-140-70-270-126-387-94-199-196-335-379-511-146-139-161-165-155-265 4-74-2-62 145-266 275-381 497-841 547-1132 53-314-27-571-241-771-326-305-930-518-1793-634-1059-143-2620-136-3655 15-899 131-1529 389-1787 731-59 78-126 233-155 358-22 94-12 276 21 400 79 299 351 817 593 1132 66 86 87 140 80 208-7 83-35 127-134 214-48 43-121 115-161 160-475 533-521 1341-110 1949 84 125 284 323 408 406 338 224 740 312 1128 246zm-341-6195c395-79 807-127 1393-162 294-18 1568-18 1860 0 586 36 978 82 1389 164 222 44 246 44 306-4 34-27 65-92 65-138 0-88-46-137-255-275-486-320-1100-528-1785-604-297-33-781-43-1082-21-716 52-1361 236-1864 531-90 53-301 194-341 227-76 65-83 189-15 266 19 21 88 55 114 56 9 0 106-18 215-40z"/><path d="m2150 8211c-431-94-763-449-835-892-95-589 297-1153 874-1254 574-101 1130 307 1226 900 91 556-252 1091-793 1237-112 30-355 35-472 9zm648-674c47-30 92-113 92-166-1-80-83-183-157-197-150-28-283 140-215 272 60 117 182 156 280 91zm-772-11c33-33 34-36 34-115 0-273 147-521 369-623 36-17 82-38 101-47 22-10 42-30 54-55 17-36 18-43 5-80-28-79-121-108-286-87-151 19-263 73-367 177-198 198-247 495-121 744 43 85 83 120 137 120 32 0 47-7 74-34z"/><path d="m6620 8224c-245-45-448-151-606-316-202-212-305-470-305-768 0-307 106-565 321-780 203-204 456-310 740-310 399 0 755 221 942 585 72 141 104 253 117 412 39 458-205 888-614 1084-150 72-230 90-415 94-85 2-166 1-180-1zm-95-683c52-23 101-80 115-132 22-79-7-151-83-213-35-28-46-31-107-31s-72 3-107 31c-53 43-83 98-83 157 0 86 41 154 115 188 51 23 99 24 150 0zm743-21c24-15 43-41 67-93 145-316 44-660-248-839-123-77-257-107-386-89-84 11-126 41-137 97-8 42 21 104 56 120 196 92 204 97 280 173 132 131 178 239 189 446 8 137 16 161 60 188 35 22 79 21 119-3z"/><path d="m2414 4526c-59-28-100-75-120-142-28-95-13-178 45-246 95-111 483-302 803-393 193-56 295-46 377 36 118 119 87 320-62 394-28 14-61 25-74 25-34 0-223 63-362 120-152 63-253 113-312 156-108 78-200 94-295 50z"/><path d="m6520 4534c-19-8-57-33-85-54-63-48-259-143-420-204-114-42-168-58-280-85-71-17-120-53-154-113-75-131-33-281 95-344 51-25 62-26 147-21 151 8 438 110 717 253 243 125 313 200 313 333 0 47-6 78-21 106-26 51-87 110-134 130-47 19-132 19-178-1z"/></g></svg>