<?xml version="1.0" encoding="UTF-8"?>
  <svg width="20" height="19"  viewBox="0 0 19 20" version="1.1" xmlns="http://www.w3.org/2000/svg" xmlns:xlink="http://www.w3.org/1999/xlink">
    <defs>
      <linearGradient
        x1="100%"
        y1="100%"
        x2="50%"
        y2="36.887%"
        id="ToadLogoGradient"
      >
        <stop stop-color="rgba(255, 255, 255, 0.75)" offset="0%" />
        <stop stop-color="rgba(255, 255, 255, 0.55)" offset="100%" />
      </linearGradient>
    </defs>
    <g
      transform="translate(-48 -12)"
      fill="url(#ToadLogoGradient)"
      fill-rule="nonzero"
    >
      <path d="M64.072 26.63a.364.364 0 0 1 0-.505c.607-.664 1.125-1.489 1.53-2.497.383-.733.36-1.626-.09-2.634a9.392 9.392 0 0 0-.72-1.329c-.113-.183-.113-.412.022-.55a4.213 4.213 0 0 0 .99-3c-.134-1.948-1.665-3.551-3.577-3.757-2.138-.23-4.006 1.282-4.366 3.344a8.852 8.852 0 0 0-1.102 0c-.36-2.062-2.228-3.573-4.366-3.344-1.912.206-3.442 1.81-3.577 3.756a3.99 3.99 0 0 0 .99 3.001c.135.16.135.39.022.55-.27.413-.517.87-.72 1.329-.427.985-.472 1.878-.09 2.611a7.862 7.862 0 0 0 1.508 2.497c.135.138.112.367 0 .504-1.463 1.604-2.205 3.39-2.498 4.215a.431.431 0 0 0 .293.573.44.44 0 0 0 .54-.298c.27-.756.967-2.451 2.34-3.94.112-.137.315-.16.472-.046 1.868 1.329 4.096 1.604 5.626 1.604 1.507 0 3.735-.275 5.603-1.58.135-.093.337-.07.472.045 1.373 1.489 2.093 3.207 2.34 3.94a.42.42 0 0 0 .518.275h.045a.431.431 0 0 0 .293-.573c-.293-.802-1.035-2.588-2.498-4.192zm-14.154-5.27a8.854 8.854 0 0 1 1.058-1.786.471.471 0 0 0-.068-.642c-.922-.71-1.372-1.855-1.17-3.047a3.12 3.12 0 0 1 2.453-2.565c1.913-.39 3.623 1.03 3.735 2.909.023.252.248.458.495.435a8.082 8.082 0 0 1 1.823 0h.09a.346.346 0 0 0 .382-.343c.09-1.65 1.396-3.024 3.038-3.07 1.755-.046 3.195 1.397 3.195 3.184 0 .985-.45 1.902-1.215 2.52a.452.452 0 0 0-.067.641 7.92 7.92 0 0 1 1.057 1.787c.248.55.315 1.031.248 1.443a2.47 2.47 0 0 1-.158.436c0 .023-.022.023-.022.045-.495.825-2.183 1.856-7.448 1.856-5.288 0-6.976-1.03-7.47-1.856 0-.022-.023-.045-.023-.045a3.093 3.093 0 0 0-.158-.413c-.112-.458-.022-.916.225-1.489zm2.115 4.925c-.315-.229-.09-.755.293-.664 1.305.298 2.948.435 4.973.435s3.668-.137 4.95-.435c.383-.091.608.413.293.664-1.598 1.215-3.578 1.535-5.243 1.535-1.688 0-3.668-.32-5.266-1.535z" />
      <path d="M59.58 23.38h.049c.364-.025 1.528-.472 1.916-.819a.486.486 0 0 0 .025-.693.462.462 0 0 0-.68-.025c-.194.173-1.115.545-1.358.57a.497.497 0 0 0-.437.545.481.481 0 0 0 .485.421zM54.738 22.407c-.22-.025-1.169-.399-1.364-.573-.194-.175-.51-.175-.681.025-.17.2-.17.523.024.698.39.349 1.558.797 1.923.822h.05c.243 0 .462-.2.486-.448a.491.491 0 0 0-.438-.524zM54.852 16.518c0-1.196-.955-2.175-2.121-2.175s-2.12.979-2.12 2.175c0 1.197.954 2.176 2.12 2.176 1.166 0 2.12-1.001 2.12-2.176zm-1.464-.87c.234 0 .403.196.403.413 0 .218-.19.414-.403.414a.423.423 0 0 1-.403-.414c0-.217.191-.413.403-.413zm-1.908.957c-.022-.304.063-.609.212-.826.148-.218.466-.11.445.152-.021.109 0 .24.021.348.085.457.403.848.849 1h.02c.234.066.234.414 0 .48-.105.021-.232.043-.36.021-.615-.022-1.124-.522-1.187-1.175zM61.54 18.694c1.167 0 2.121-.98 2.121-2.176 0-1.196-.954-2.175-2.12-2.175-1.167 0-2.121.979-2.121 2.175 0 1.197.954 2.176 2.12 2.176zm-.636-3.024c.233 0 .403.196.403.413 0 .218-.19.414-.403.414a.408.408 0 0 1-.403-.414c0-.217.17-.413.403-.413zm1.909.957a1.309 1.309 0 0 1-1.188 1.197c-.106 0-.233 0-.318-.022-.254-.044-.254-.414-.021-.479h.021c.445-.152.785-.544.848-1 .022-.131.022-.24.022-.349-.022-.26.296-.37.445-.152.127.218.212.5.19.805z" />
    </g>
  </svg>